<svg width="52" height="55" viewBox="0 0 52 55" fill="none" xmlns="http://www.w3.org/2000/svg">
<path d="M25.5787 23.1787C22.8647 23.1787 20.6567 25.3868 20.6567 28.1008C20.6567 30.8148 22.8647 33.0226 25.5787 33.0226C28.2927 33.0226 30.5007 30.8147 30.5007 28.1007C30.5007 25.3867 28.2927 23.1787 25.5787 23.1787ZM25.5787 30.8658C24.0541 30.8658 22.8136 29.6254 22.8136 28.1007C22.8136 26.5759 24.054 25.3354 25.5787 25.3354C27.1033 25.3354 28.3438 26.5758 28.3438 28.1007C28.3438 29.6254 27.1033 30.8658 25.5787 30.8658Z" fill="#D0A29F"/>
<path d="M50.5351 38.8227L35.7439 31.9072V21.4952C35.7439 21.2196 35.6383 20.9544 35.449 20.7542L26.657 11.4583V5.51944H28.1807C28.7763 5.51944 29.2592 5.03647 29.2592 4.44104C29.2592 3.8456 28.7762 3.36263 28.1807 3.36263H26.657V1.07841C26.657 0.482969 26.1741 0 25.5786 0C24.9829 0 24.5001 0.482969 24.5001 1.07841V3.36252H22.9764C22.3807 3.36252 21.898 3.84549 21.898 4.44093C21.898 5.03637 22.3808 5.51934 22.9764 5.51934H24.5001V11.4584L15.7082 20.7542C15.5188 20.9544 15.4132 21.2196 15.4132 21.4952V31.9072L0.621983 38.8226C0.0824029 39.0748 -0.150488 39.7167 0.101739 40.2562C0.354073 40.7959 0.995811 41.0286 1.53539 40.7764L3.60326 39.8096V53.9216C3.60326 54.5171 4.08612 55 4.68167 55H46.4753C47.0709 55 47.5537 54.517 47.5537 53.9216V39.8097L49.6216 40.7765C50.1615 41.0288 50.8031 40.7958 51.0553 40.2563C51.3076 39.7168 51.0747 39.0749 50.5351 38.8227ZM15.4133 52.8432H11.6452V46.0189C11.6452 45.4233 11.1623 44.9405 10.5668 44.9405C9.97112 44.9405 9.48837 45.4234 9.48837 46.0189V52.8432H5.76019V38.8012L15.4133 34.2881V52.8432ZM28.3437 52.8432H22.8146V43.5946C22.8146 42.0698 24.0546 40.8293 25.5787 40.8293C26.3179 40.8293 27.012 41.1168 27.5337 41.6394C28.0561 42.1617 28.3437 42.856 28.3437 43.5945V52.8432ZM33.587 52.8431H30.5005V43.5945C30.5005 42.28 29.9884 41.044 29.0595 40.1148C28.1307 39.1847 26.8946 38.6725 25.5786 38.6725C22.8651 38.6725 20.6577 40.8806 20.6577 43.5946V52.8431H17.5701V21.9245L25.5786 13.457L33.587 21.9245V52.8431ZM45.3969 52.8432H41.6689V48.2782C41.6689 47.6826 41.1859 47.1998 40.5904 47.1998C39.9949 47.1998 39.512 47.6827 39.512 48.2782V52.8432H35.744V34.2882L45.3969 38.8013V52.8432Z" fill="#D0A29F"/>
<path d="M40.5908 44.3235C39.203 44.3235 39.2007 46.4803 40.5908 46.4803C41.9786 46.4803 41.9808 44.3235 40.5908 44.3235Z" fill="#D0A29F"/>
</svg>
