<svg width="53" height="55" viewBox="0 0 53 55" fill="none" xmlns="http://www.w3.org/2000/svg">
<path d="M0.974502 22.2165H2.48043V54.0255C2.48043 54.5641 2.91636 55 3.45493 55H49.15C49.6885 55 50.1245 54.5641 50.1245 54.0255V22.2165H51.6304C52.169 22.2165 52.6049 21.7805 52.6049 21.242V10.4165C52.6049 9.87798 52.169 9.44205 51.6304 9.44205H28.9661C32.512 8.72936 36.9797 6.86157 38.268 4.51497C38.9209 3.32478 38.6897 2.15992 37.582 1.05159C36.7647 0.234306 35.8149 -0.110667 34.7358 0.0309602C31.5706 0.44155 28.063 4.94635 26.3025 7.50993C24.5419 4.94635 21.0343 0.44155 17.8704 0.0309602C16.7796 -0.110667 15.8402 0.234306 15.0223 1.05159C13.9146 2.15992 13.6833 3.32543 14.3362 4.51562C15.6245 6.86222 20.0923 8.73001 23.6382 9.4427H0.974502C0.435927 9.4427 0 9.87862 0 10.4172V21.2433C0 21.7818 0.435927 22.2178 0.974502 22.2178V22.2165ZM25.3279 53.051H4.42944V22.2165H25.3279V53.051ZM48.1755 53.051H27.277V22.2165H48.1755V53.051ZM50.6559 11.3904V20.2675H27.277V11.3904H50.6559ZM34.9885 1.96242C35.0606 1.95268 35.1308 1.94813 35.1996 1.94813C35.4582 1.94813 35.7805 2.0053 36.2034 2.42888C36.8394 3.06491 36.6971 3.32543 36.5594 3.57685C35.6726 5.19192 31.9091 6.86417 28.6887 7.51903C30.691 4.81576 33.1876 2.1963 34.9885 1.96242ZM16.0455 3.57685C15.9078 3.32543 15.7648 3.06491 16.4009 2.42823C16.8244 2.00465 17.146 1.94748 17.4053 1.94748C17.4741 1.94748 17.5443 1.95268 17.6177 1.96177C19.4173 2.19565 21.9139 4.81576 23.9162 7.51838C20.6958 6.86352 16.9323 5.19192 16.0455 3.57685ZM1.949 11.3911H25.3279V20.2681H1.949V11.3911Z" fill="#D0A29F"/>
</svg>
