<svg width="55" height="55" viewBox="0 0 55 55" fill="none" xmlns="http://www.w3.org/2000/svg">
<g clip-path="url(#clip0_54_33)">
<path d="M4.59324 34.8896L4.54332 34.8924C4.54349 34.8956 4.54381 34.8987 4.54404 34.9008C4.54407 34.901 4.54409 34.9012 4.54412 34.9014L4.97648 40.047L4.9765 40.0471C5.29731 43.7519 7.01516 47.1947 9.77976 49.6785L2.30169 52.5095L3.65369 46.9609C3.78015 46.4421 3.46225 45.9191 2.94347 45.7926C2.4247 45.6662 1.90169 45.9841 1.77523 46.5029L-0.012475 53.8333C-0.139545 54.3516 0.177645 54.8749 0.696079 55.0018C0.886202 55.0484 1.08586 55.0361 1.26883 54.9668L35.1723 42.1385L35.1723 42.1387L35.1765 42.1366C35.2297 42.1107 35.2801 42.0796 35.3271 42.0438C36.0662 41.9276 36.7512 41.5845 37.2869 41.0618L37.2874 41.0614C37.749 40.5997 38.1766 39.8944 38.307 38.8323C38.4372 37.7711 38.2705 36.3563 37.5489 34.4744C37.3678 33.9726 36.8143 33.7125 36.3124 33.8934C35.8103 34.0743 35.55 34.628 35.731 35.13L35.731 35.1301C35.7354 35.1423 35.74 35.1543 35.7449 35.1662C36.1614 36.2534 36.3836 37.2097 36.4115 37.9834C36.4394 38.7583 36.2724 39.3418 35.9209 39.6941C35.4941 40.12 34.7402 40.2739 33.73 40.1476C32.7223 40.0216 31.4719 39.6181 30.0676 38.9462C26.3041 36.9919 22.8832 34.439 19.9386 31.3875L19.938 31.3868C16.3522 27.8006 13.8211 24.2495 12.4155 21.3684C11.7125 19.9275 11.2921 18.6565 11.1609 17.6338C11.0295 16.6106 11.1888 15.8476 11.6286 15.4059C12.2011 14.9548 12.9447 14.7817 13.6576 14.9335L13.6575 14.934L13.6644 14.9345C14.1966 14.9736 14.6598 14.5738 14.6989 14.0416C14.7367 13.5276 14.3645 13.0745 13.8532 13.0117C12.5645 12.7841 11.2425 13.16 10.2664 14.0318L10.2663 14.0318L10.2643 14.0337C9.41137 14.8865 9.10101 16.0794 9.21284 17.4836C9.32462 18.8872 9.85834 20.5069 10.6998 22.2223C12.3827 25.6536 15.3026 29.48 18.5713 32.7493C21.67 35.9557 25.2705 38.6358 29.2315 40.6838L29.2329 40.6844C29.9088 41.0081 30.6041 41.2894 31.3149 41.5269L24.9542 43.9386C16.2867 40.6361 10.048 32.9481 8.60166 23.7852C8.5189 23.258 8.02441 22.8976 7.49718 22.9803C6.96994 23.063 6.6095 23.5575 6.69225 24.0848C6.83637 25.0028 7.02914 25.9208 7.26506 26.8185L7.26507 26.8186C9.36882 34.7894 14.8934 41.4176 22.3499 44.9237L11.7835 48.922C11.7357 48.8497 11.6782 48.7842 11.6125 48.7274L11.6111 48.7262C8.89845 46.5483 7.19646 43.3544 6.90142 39.8883L6.47632 34.7405C6.47631 34.7403 6.4763 34.7402 6.47629 34.7401C6.44081 34.2139 5.98548 33.816 5.45913 33.8512L5.45887 33.8513C5.44975 33.8519 5.43958 33.8527 5.42936 33.8538C4.89778 33.8964 4.50114 34.3619 4.5434 34.8936L4.59324 34.8896ZM4.59324 34.8896L4.59381 34.8959L5.43407 33.9035C4.92964 33.9436 4.55315 34.3852 4.59324 34.8896Z" fill="#5E7E67" stroke="#5E7E67" stroke-width="0.1"/>
<path d="M45.8277 33.9534C46.3613 33.9541 46.7945 33.5224 46.7954 32.9887C46.7961 32.5847 46.5454 32.2229 46.1667 32.0817C41.2051 30.2243 35.8423 29.7035 30.616 30.5719L30.6159 30.5719L27.3419 31.1217L27.3419 31.1217L27.3408 31.1219C26.8167 31.2226 26.4735 31.7291 26.5742 32.2532L26.5742 32.2532C26.6716 32.7595 27.1493 33.1003 27.6596 33.0275L27.6596 33.0275L27.6608 33.0273L30.9338 32.4821C30.9338 32.4821 30.9338 32.4821 30.9339 32.4821C35.8254 31.6688 40.8449 32.1566 45.4884 33.8962L45.4893 33.8965C45.5979 33.935 45.7125 33.9542 45.8277 33.9534ZM45.8277 33.9534C45.8277 33.9534 45.8276 33.9534 45.8275 33.9534L45.8276 33.9035L45.8279 33.9534C45.8279 33.9534 45.8278 33.9534 45.8277 33.9534Z" fill="#5E7E67" stroke="#5E7E67" stroke-width="0.1"/>
<path d="M29.7418 28.3666C29.2624 28.5882 28.693 28.3836 28.4648 27.9062C28.4645 27.9057 28.4643 27.9052 28.464 27.9047L29.7418 28.3666ZM29.7418 28.3666H29.7419L29.7507 28.3624M29.7418 28.3666L29.7509 28.3624M29.7507 28.3624L29.7519 28.3619L29.7338 28.3666C29.7371 28.3664 29.7405 28.3658 29.744 28.3649C29.7464 28.3642 29.7486 28.3634 29.7507 28.3624ZM29.7507 28.3624C29.7508 28.3624 29.7508 28.3624 29.7509 28.3624M29.7509 28.3624C29.7517 28.362 29.7524 28.3617 29.7532 28.3613L48.9946 19.1987C49.4766 18.9692 49.6812 18.3925 49.4517 17.9106C49.2222 17.4286 48.6456 17.224 48.1636 17.4535L28.9211 26.6166C28.4397 26.8458 28.2349 27.4215 28.4633 27.9032L29.7509 28.3624Z" fill="#5E7E67" stroke="#5E7E67" stroke-width="0.1"/>
<path d="M19.061 22.0912L19.061 22.0912C21.1068 17.2026 21.5839 11.7993 20.4265 6.62795C20.4264 6.62781 20.4264 6.62767 20.4264 6.62752L20.4752 6.6166C20.4725 6.60572 20.47 6.59484 20.4678 6.58384L19.061 22.0912ZM19.061 22.0912L17.7287 25.2883L17.7286 25.2884C17.5256 25.7796 17.7573 26.3426 18.2475 26.5485L19.061 22.0912ZM21.1734 5.4544C20.6504 5.56069 20.3126 6.0707 20.4188 6.59368L20.8438 22.8353C23.0441 17.579 23.5573 11.7691 22.3127 6.20848C22.2062 5.68575 21.6963 5.34814 21.1734 5.4544ZM19.5106 26.0286L20.8438 22.8353L18.6187 26.5729V26.6229C18.6188 26.6229 18.6188 26.6229 18.6188 26.6229C19.0088 26.6229 19.3605 26.3886 19.5106 26.0286C19.5106 26.0286 19.5106 26.0286 19.5106 26.0286Z" fill="#5E7E67" stroke="#5E7E67" stroke-width="0.1"/>
<path d="M50.4091 32.9371C48.8633 32.9371 47.6102 34.1902 47.6102 35.736C47.6102 37.2818 48.8633 38.5349 50.4091 38.5349C51.9549 38.5349 53.208 37.2818 53.208 35.736C53.208 34.1902 51.9549 32.9371 50.4091 32.9371ZM50.4091 36.6023C49.9307 36.6023 49.5428 36.2144 49.5428 35.736C49.5428 35.2576 49.9307 34.8697 50.4091 34.8697C50.8875 34.8697 51.2754 35.2576 51.2754 35.736C51.2754 36.2144 50.8875 36.6023 50.4091 36.6023Z" fill="#5E7E67" stroke="#5E7E67" stroke-width="0.1"/>
<path d="M28.4176 7.28057C26.8718 7.28057 25.6187 8.53367 25.6187 10.0795C25.6187 11.6253 26.8718 12.8784 28.4176 12.8784C29.9635 12.8784 31.2166 11.6253 31.2166 10.0795C31.2166 8.53367 29.9635 7.28057 28.4176 7.28057ZM28.4176 10.9458C27.9392 10.9458 27.5513 10.5579 27.5513 10.0795C27.5513 9.60108 27.9392 9.21319 28.4176 9.21319C28.896 9.21319 29.2839 9.60108 29.2839 10.0795C29.2839 10.5579 28.896 10.9458 28.4176 10.9458Z" fill="#5E7E67" stroke="#5E7E67" stroke-width="0.1"/>
<path d="M20.1708 3.71524C21.2105 3.71524 22.0534 2.87236 22.0534 1.83262C22.0534 0.792877 21.2105 -0.05 20.1708 -0.05C19.131 -0.05 18.2881 0.792877 18.2881 1.83262C18.2881 2.87236 19.131 3.71524 20.1708 3.71524Z" fill="#5E7E67" stroke="#5E7E67" stroke-width="0.1"/>
<path d="M45.8274 4.53154C45.2938 4.53154 44.8611 4.96421 44.8611 5.49785V6.41416C44.8611 6.94781 45.2938 7.38047 45.8274 7.38047C46.3611 7.38047 46.7938 6.94781 46.7938 6.41416V5.49785C46.7938 4.96421 46.3611 4.53154 45.8274 4.53154Z" fill="#5E7E67" stroke="#5E7E67" stroke-width="0.1"/>
<path d="M45.8274 -0.05C45.2938 -0.05 44.8611 0.382663 44.8611 0.91631V1.83262C44.8611 2.36627 45.2938 2.79893 45.8274 2.79893C46.3611 2.79893 46.7938 2.36627 46.7938 1.83262V0.91631C46.7938 0.382663 46.3611 -0.05 45.8274 -0.05Z" fill="#5E7E67" stroke="#5E7E67" stroke-width="0.1"/>
<path d="M48.5765 2.69902H47.6602C47.1266 2.69902 46.6939 3.13169 46.6939 3.66533C46.6939 4.19898 47.1266 4.63164 47.6602 4.63164H48.5765C49.1102 4.63164 49.5428 4.19898 49.5428 3.66533C49.5428 3.13169 49.1102 2.69902 48.5765 2.69902Z" fill="#5E7E67" stroke="#5E7E67" stroke-width="0.1"/>
<path d="M43.995 2.69902H43.0787C42.545 2.69902 42.1124 3.13169 42.1124 3.66533C42.1124 4.19898 42.545 4.63164 43.0787 4.63164H43.995C44.5286 4.63164 44.9613 4.19898 44.9613 3.66533C44.9613 3.13169 44.5286 2.69902 43.995 2.69902Z" fill="#5E7E67" stroke="#5E7E67" stroke-width="0.1"/>
<path d="M39.4133 10.0101H34.8125C34.2789 10.0101 33.8462 10.4427 33.8462 10.9764V15.5772C33.8462 16.1108 34.2789 16.5435 34.8125 16.5435H39.4133C39.947 16.5435 40.3797 16.1108 40.3797 15.5772V10.9764C40.3797 10.4427 39.947 10.0101 39.4133 10.0101ZM38.447 14.6108H35.7789V11.9427H38.447V14.6108Z" fill="#5E7E67" stroke="#5E7E67" stroke-width="0.1"/>
<path d="M31.4371 17.6075L31.4364 17.6081L22.2733 25.8549L22.2733 25.8549C21.8768 26.212 21.8448 26.8228 22.2018 27.2194L22.2018 27.2194C22.5588 27.6158 23.1696 27.6478 23.5662 27.2909L32.7293 19.0441L32.7293 19.0441L32.73 19.0434C33.1196 18.6785 33.1395 18.0671 32.7746 17.6776C32.4198 17.2989 31.8294 17.268 31.4371 17.6075L31.4371 17.6075Z" fill="#5E7E67" stroke="#5E7E67" stroke-width="0.1"/>
<path d="M49.4927 21.0252C48.9591 21.0252 48.5264 21.4579 48.5264 21.9915V22.9078C48.5264 23.4415 48.9591 23.8741 49.4927 23.8741C50.0264 23.8741 50.459 23.4415 50.459 22.9078V21.9915C50.459 21.4579 50.0264 21.0252 49.4927 21.0252Z" fill="#5E7E67" stroke="#5E7E67" stroke-width="0.1"/>
<path d="M53.4166 20.8828L53.4166 20.8828L53.416 20.8822L52.7681 20.2344L52.7682 20.2344L52.7675 20.2338C52.3837 19.8629 51.772 19.8736 51.4012 20.2574L51.4012 20.2574C51.0395 20.6319 51.0395 21.2256 51.4012 21.6001L51.4012 21.6001L51.4018 21.6007L52.0496 22.2486L52.0496 22.2486L52.0502 22.2492C52.4341 22.62 53.0458 22.6094 53.4166 22.2255L53.4166 22.2255C53.7783 21.851 53.7784 21.2573 53.4166 20.8828Z" fill="#5E7E67" stroke="#5E7E67" stroke-width="0.1"/>
<path d="M54.0743 17.3599H53.158C52.6244 17.3599 52.1917 17.7926 52.1917 18.3262C52.1917 18.8599 52.6244 19.2925 53.158 19.2925H54.0743C54.608 19.2925 55.0406 18.8599 55.0406 18.3262C55.0406 17.7926 54.608 17.3599 54.0743 17.3599Z" fill="#5E7E67" stroke="#5E7E67" stroke-width="0.1"/>
<path d="M52.0503 14.4033L52.0503 14.4034C52.4249 14.0417 53.0186 14.0417 53.393 14.4034M52.0503 14.4033L53.393 14.4034M52.0503 14.4033L52.0497 14.404M52.0503 14.4033L52.0497 14.404M53.393 14.4034C53.7769 14.7741 53.7875 15.3859 53.4167 15.7697M53.393 14.4034L53.4167 15.7697M52.0497 14.404L51.4019 15.0518L51.4019 15.0518M52.0497 14.404L51.4019 15.0518M51.4019 15.0518C51.0245 15.4293 51.0247 16.0411 51.4021 16.4184L51.4021 16.4184M51.4019 15.0518L51.4021 16.4184M51.4021 16.4184C51.5833 16.5995 51.829 16.7013 52.0851 16.7013C52.3414 16.7013 52.5871 16.5993 52.7683 16.4182L53.4161 15.7703L53.4161 15.7703M51.4021 16.4184L53.4161 15.7703M53.4161 15.7703L53.4167 15.7697M53.4161 15.7703L53.4167 15.7697" fill="#5E7E67" stroke="#5E7E67" stroke-width="0.1"/>
<path d="M49.4927 12.7784C48.9591 12.7784 48.5264 13.211 48.5264 13.7447V14.661C48.5264 15.1946 48.9591 15.6273 49.4927 15.6273C50.0264 15.6273 50.459 15.1946 50.459 14.661V13.7447C50.459 13.211 50.0264 12.7784 49.4927 12.7784Z" fill="#5E7E67" stroke="#5E7E67" stroke-width="0.1"/>
<path d="M47.5843 15.0522L47.5843 15.0522L47.5837 15.0516L46.9359 14.4038L46.9359 14.4038L46.9352 14.4032C46.5514 14.0325 45.9397 14.043 45.5689 14.4268L45.5689 14.4268C45.2072 14.8013 45.2073 15.395 45.5689 15.7695L45.5689 15.7695L45.5695 15.7701L46.2173 16.418L46.2173 16.418L46.2179 16.4186C46.6018 16.7894 47.2135 16.7788 47.5843 16.3949L47.5843 16.3949C47.9461 16.0203 47.9461 15.4267 47.5843 15.0522Z" fill="#5E7E67" stroke="#5E7E67" stroke-width="0.1"/>
<path d="M6.37966 0.48909L6.37953 0.489152L7.56736 2.90201L10.2307 3.28949C10.5944 3.34239 10.8967 3.59701 11.0105 3.94658C11.1246 4.29601 11.0306 4.67986 10.7679 4.93701L10.7679 4.93708L8.84043 6.81551L9.29416 9.46797C9.29416 9.46797 9.29416 9.46797 9.29416 9.46798C9.33003 9.67741 9.29597 9.89278 9.19704 10.0809M6.37966 0.48909L9.15278 10.0576M6.37966 0.48909L6.37776 0.485862L6.37966 0.48909ZM9.19704 10.0809L9.15278 10.0576M9.19704 10.0809C9.19704 10.0809 9.19704 10.0808 9.19704 10.0808L9.15278 10.0576M9.19704 10.0809C8.94869 10.5533 8.36444 10.7348 7.89204 10.4865L5.51003 9.2342M9.15278 10.0576C8.91729 10.5055 8.36327 10.6777 7.91531 10.4422L5.50999 9.17769M5.51003 9.2342L5.53331 9.22192L5.50999 9.17769M5.51003 9.2342L3.12804 10.4901M5.51003 9.2342L5.48673 9.22195L5.50999 9.17769M5.50999 9.17769L3.12804 10.4901M3.12804 10.4901L3.10468 10.4459L3.128 10.4901L3.12804 10.4901ZM3.12804 10.4901C2.93804 10.5904 2.72014 10.6246 2.50852 10.5873C1.98301 10.4945 1.63226 9.99335 1.72494 9.46786L1.72492 9.46798L1.77411 9.47639L1.72496 9.46772L2.17864 6.8155M3.12804 10.4901L-0.0289888 4.38394C0.00133156 4.59424 0.100141 4.78859 0.25209 4.93704L0.252125 4.93707L2.17864 6.8155M2.17864 6.8155L2.19745 6.83384L2.23236 6.79804L2.18307 6.78961L2.17864 6.8155ZM4.64761 0.485804L4.64773 0.485871C4.73416 0.339049 4.85651 0.216695 5.00333 0.130263C5.00333 0.130262 5.00334 0.13026 5.00334 0.130258L5.0287 0.173347L4.64761 0.485804ZM4.64761 0.485804L4.646 0.489071M4.64761 0.485804L4.646 0.489071M4.646 0.489071L3.45269 2.902M4.646 0.489071L3.45269 2.902M6.84618 6.64064L6.84616 6.64057C6.7929 6.32738 6.89689 6.00801 7.12446 5.78635C7.12446 5.78635 7.12446 5.78635 7.12447 5.78635L8.01402 4.91967L6.78563 4.74092L6.78559 4.74091C6.47118 4.69489 6.19952 4.49728 6.05893 4.21235C6.05893 4.21235 6.05893 4.21234 6.05893 4.21234L5.51003 3.10015L4.96199 4.21232L4.96198 4.21234C4.82126 4.49753 4.54912 4.69526 4.23434 4.74092M6.84618 6.64064L2.95996 4.87571L3.00513 4.91967M6.84618 6.64064L7.05625 7.86468L5.9594 7.28619L5.95932 7.28614C5.67801 7.13842 5.34198 7.13842 5.06067 7.28614L3.95911 7.86404L4.16921 6.63983L6.84618 6.64064ZM4.23434 4.74092L4.22716 4.69144L4.23436 4.74092L4.23434 4.74092ZM4.23434 4.74092L3.00513 4.91967M3.00513 4.91967L3.89551 5.78634L3.89575 5.78656C4.12124 6.00892 4.22343 6.32775 4.16923 6.63973L4.11995 6.63127C4.17138 6.33541 4.07448 6.03303 3.86064 5.82217L2.94276 4.92874L3.00513 4.91967ZM3.45269 2.902L0.789358 3.28948L0.7893 3.28949L0.796498 3.33897L3.45269 2.902Z" fill="#5E7E67" stroke="#5E7E67" stroke-width="0.1"/>
<path d="M51.9246 45.8893L51.5557 45.3359L51.5557 45.3359C49.4312 42.1589 46.0906 39.9987 42.3217 39.3648L42.3217 39.3648L42.3205 39.3646C41.7922 39.2892 41.3027 39.6564 41.2274 40.1847L51.9246 45.8893ZM51.9246 45.8893C54.8729 47.6989 55.8676 51.5133 54.1778 54.5323L51.9246 45.8893ZM50.0969 50.291L50.0968 50.2913C49.621 51.1533 48.5367 51.4663 47.6748 50.9906C46.8129 50.5149 46.4997 49.4305 46.9754 48.5686L46.9795 48.5611L46.9831 48.5547C47.5156 47.6835 48.413 47.0992 49.4252 46.9649C49.5749 46.9613 49.723 46.9958 49.8556 47.0653C50.0354 47.1658 50.1767 47.3525 50.2781 47.5977C50.3794 47.8429 50.439 48.1424 50.4576 48.4613C50.495 49.1001 50.3679 49.8056 50.0969 50.291Z" fill="#5E7E67" stroke="#5E7E67" stroke-width="0.1"/>
</g>
<defs>
<clipPath id="clip0_54_33">
<rect width="55" height="55" fill="white"/>
</clipPath>
</defs>
</svg>
