<svg width="67" height="55" viewBox="0 0 67 55" fill="none" xmlns="http://www.w3.org/2000/svg">
<path d="M45.8413 12.8966C41.3295 12.8966 37.0608 14.2896 33.4465 16.9315C31.1941 15.2852 28.6877 14.1243 26.0265 13.4831L31.6824 7.00129C31.6844 6.99907 31.6857 6.99646 31.6875 6.99424C31.7211 6.95517 31.751 6.91336 31.7781 6.86946C31.7824 6.86241 31.7867 6.85548 31.7909 6.84843C31.816 6.80518 31.8379 6.76011 31.8563 6.71295C31.8592 6.70563 31.8617 6.69831 31.8644 6.69086C31.8817 6.64344 31.8961 6.59458 31.9059 6.54415C31.9068 6.53957 31.9072 6.535 31.9079 6.53056C31.9164 6.48339 31.9213 6.43518 31.9228 6.38606C31.9231 6.37953 31.9238 6.37312 31.9238 6.36659C31.9238 6.36306 31.9243 6.35954 31.9243 6.35601C31.9243 6.30911 31.9198 6.26325 31.9136 6.2183C31.9123 6.20942 31.9111 6.2008 31.9095 6.19191C31.9011 6.14213 31.8894 6.09353 31.8737 6.04676C31.8716 6.04062 31.8691 6.03461 31.8671 6.02847C31.8493 5.97843 31.8284 5.92983 31.8032 5.88397C31.8021 5.88201 31.8008 5.88018 31.7998 5.87822C31.7726 5.82949 31.7414 5.78337 31.7065 5.74025L31.7037 5.7362L31.7001 5.73176L27.3255 0.361771C27.1391 0.132872 26.8594 0 26.5642 0H15.5388C15.2435 0 14.9639 0.132872 14.7775 0.361771L10.403 5.73098L10.3994 5.73542L10.3966 5.73947C10.3617 5.78258 10.3307 5.8287 10.3033 5.87744C10.3023 5.8794 10.301 5.88122 10.2999 5.88318C10.2747 5.92917 10.2538 5.97778 10.2361 6.02768C10.2338 6.03382 10.2314 6.03983 10.2294 6.04597C10.2138 6.09288 10.2021 6.14148 10.1936 6.19113C10.1922 6.19988 10.1909 6.20864 10.1895 6.21752C10.1831 6.26272 10.1788 6.30832 10.1788 6.35523C10.1788 6.35888 10.1794 6.36228 10.1794 6.36581C10.1795 6.37234 10.1801 6.37874 10.1803 6.38527C10.1817 6.43453 10.1867 6.48274 10.1952 6.52977C10.196 6.53435 10.1963 6.53892 10.1973 6.54336C10.2071 6.59392 10.2214 6.64279 10.2387 6.69008C10.2414 6.69753 10.2439 6.70484 10.2468 6.71216C10.2652 6.75933 10.2871 6.8044 10.3122 6.84765C10.3163 6.8547 10.3207 6.86162 10.325 6.86868C10.3521 6.91271 10.3823 6.95439 10.4156 6.99345C10.4175 6.99567 10.4187 6.99829 10.4207 7.00051L16.0829 13.4899C6.86528 15.7295 0 24.0516 0 33.9483C0 45.5563 9.4438 55 21.0516 55C25.5633 55 29.832 53.607 33.4465 50.9651C37.0608 53.6069 41.3294 55 45.8414 55C57.4493 55 66.893 45.5562 66.893 33.9483C66.893 22.3404 57.4492 12.8966 45.8413 12.8966ZM26.0978 1.96315L28.8761 5.37365H25.6809L24.5813 1.96315H26.0978ZM25.6655 7.33745H28.7825L23.7806 13.07C23.7503 13.0662 23.7204 13.0619 23.6903 13.0581L25.6655 7.33745ZM19.5853 1.96302H22.518L23.6175 5.37352H18.4857L19.5853 1.96302ZM23.5879 7.33758L21.6651 12.9064C21.4611 12.9007 21.2568 12.8968 21.0518 12.8968C20.9259 12.8968 20.7967 12.8987 20.6654 12.9016C20.5897 12.9029 20.5139 12.9041 20.4383 12.9063L18.5155 7.33758H23.5879ZM16.0056 1.96302H17.5218L16.4224 5.37352H13.2273L16.0056 1.96302ZM13.3208 7.33758H16.4378L18.4142 13.0615C18.3846 13.0653 18.3549 13.0691 18.3254 13.0729L13.3208 7.33758ZM21.0516 53.0359C10.5266 53.0359 1.96394 44.4732 1.96394 33.9483C1.96394 24.427 8.97149 16.5121 18.0998 15.0891C18.3276 15.0537 18.5564 15.0228 18.7859 14.9957C18.8146 14.9923 18.8434 14.989 18.8722 14.9857C19.1805 14.9506 19.4899 14.9251 19.7994 14.9049C19.8042 14.9046 19.8089 14.9055 19.8138 14.9051C20.0422 14.8905 20.2515 14.8798 20.4487 14.8723C20.6498 14.8659 20.8509 14.8606 21.0514 14.8606C21.4532 14.8606 21.852 14.886 22.2859 14.914C22.3071 14.9153 22.3283 14.916 22.3492 14.916C22.365 14.916 22.3804 14.9131 22.3961 14.9123C22.9206 14.9518 23.4549 15.0134 24.0084 15.0995C24.0589 15.1074 24.1094 15.1111 24.1595 15.1111L24.1659 15.1108C27.3224 15.6237 30.277 16.9197 32.8394 18.9344C33.1033 19.1418 33.362 19.3568 33.6152 19.5783C33.8617 19.7942 34.1026 20.0168 34.338 20.2453C34.4652 20.3688 34.591 20.4937 34.7147 20.6205C35.0677 20.9824 35.4065 21.3583 35.7297 21.7469C38.5731 25.1635 40.1392 29.4968 40.1392 33.9482C40.1392 38.0816 38.7889 42.113 36.3197 45.4033C36.3145 45.3989 36.309 45.3947 36.3037 45.3904C36.1678 45.2769 36.0338 45.1612 35.9018 45.043C35.8764 45.0203 35.8518 44.9964 35.8265 44.9734C35.7208 44.8773 35.6162 44.7804 35.5132 44.6814C35.4682 44.638 35.4244 44.5936 35.3798 44.5495C35.2981 44.4689 35.2165 44.3878 35.1367 44.3052C35.0884 44.2552 35.0408 44.2044 34.9933 44.1538C34.9188 44.0748 34.8448 43.9949 34.7721 43.9142C34.7498 43.8896 34.728 43.8644 34.706 43.8397C36.2907 41.6545 37.3311 39.1155 37.7279 36.4487C37.8076 35.9122 37.4376 35.4126 36.9013 35.3329C36.3642 35.2529 35.8652 35.6234 35.7855 36.1596C35.4635 38.3239 34.6594 40.3924 33.4445 42.2117C31.8049 39.7667 30.9441 36.9352 30.9441 33.9481C30.9441 30.9609 31.805 28.1294 33.4445 25.6845C34.788 27.6942 35.6221 29.9941 35.8699 32.4087C35.9219 32.9142 36.3484 33.2905 36.8456 33.2905C36.8792 33.2905 36.913 33.2888 36.9471 33.2853C37.4867 33.2299 37.8791 32.7475 37.8237 32.208C37.493 28.9862 36.2441 25.9436 34.2125 23.4093C33.3949 22.3894 32.4619 21.4675 31.4337 20.663C31.2868 20.548 31.1379 20.4354 30.9873 20.3255C28.0872 18.207 24.6515 17.0871 21.0516 17.0871C16.9943 17.0871 13.0735 18.5491 10.0116 21.2035C9.60188 21.5587 9.55772 22.1789 9.91283 22.5887C10.2681 22.9984 10.8883 23.0425 11.298 22.6874C14.0028 20.3424 17.4666 19.051 21.0514 19.051C23.8895 19.051 26.6107 19.8407 28.984 21.3398C26.2725 24.9645 24.7893 29.4 24.7893 33.9479C24.7893 38.4957 26.2725 42.9313 28.984 46.5561C26.6107 48.0552 23.8895 48.8448 21.0514 48.8448C12.8372 48.8448 6.15454 42.162 6.15454 33.9479C6.15454 30.8931 7.07223 27.9576 8.80831 25.4588C9.11782 25.0135 9.00756 24.4016 8.56217 24.0921C8.11678 23.7824 7.50495 23.8928 7.19557 24.3382C5.22967 27.1676 4.19061 30.4905 4.19061 33.9479C4.19061 43.245 11.7543 50.8087 21.0514 50.8087C24.3483 50.8087 27.507 49.8698 30.2429 48.0844C30.267 48.1109 30.2921 48.1367 30.3162 48.1629C30.3809 48.2335 30.4464 48.3034 30.5121 48.3732C30.5749 48.44 30.6379 48.5067 30.7018 48.5728C30.7685 48.6419 30.8362 48.7102 30.9039 48.7784C30.9684 48.8435 31.033 48.9084 31.0983 48.9726C31.1669 49.0399 31.2363 49.1062 31.3056 49.1726C31.3719 49.2358 31.438 49.2992 31.505 49.3617C31.5752 49.427 31.6463 49.4914 31.7173 49.5557C31.7646 49.5985 31.8109 49.6423 31.8583 49.6846C28.6758 51.8815 24.9645 53.0359 21.0516 53.0359ZM45.8413 53.0359C41.5191 53.0359 37.4428 51.6273 34.0534 48.9623C32.9977 48.132 32.025 47.1858 31.1627 46.1496C28.3194 42.7327 26.7534 38.3997 26.7534 33.9483C26.7534 29.8151 28.1035 25.7836 30.5728 22.4932C30.5779 22.4973 30.5832 22.5014 30.5882 22.5056C30.7244 22.6191 30.8586 22.735 30.9906 22.8534C31.0169 22.8769 31.0424 22.9016 31.0685 22.9253C31.1733 23.0206 31.2772 23.1167 31.3792 23.215C31.4248 23.2589 31.4692 23.304 31.5143 23.3485C31.5953 23.4285 31.6762 23.509 31.7553 23.5907C31.8045 23.6414 31.8526 23.693 31.9008 23.7444C31.9743 23.8227 32.0475 23.9014 32.1195 23.9813C32.1421 24.0063 32.1644 24.032 32.1868 24.0573C30.1137 26.9196 28.9802 30.4006 28.9802 33.9484C28.9802 37.7683 30.2942 41.511 32.6802 44.487C33.6145 45.6524 34.6997 46.69 35.9053 47.5708C38.8054 49.6893 42.2412 50.8093 45.8411 50.8093C50.2506 50.8093 54.4211 49.1181 57.5843 46.0476C57.9733 45.6699 57.9826 45.0482 57.6048 44.659C57.2271 44.2698 56.6054 44.2608 56.2162 44.6385C53.4216 47.3513 49.737 48.8453 45.841 48.8453C43.0029 48.8453 40.2817 48.0555 37.9083 46.5565C40.6198 42.9318 42.103 38.4963 42.103 33.9483C42.103 29.4004 40.6198 24.9648 37.9083 21.3402C40.2817 19.8411 43.0029 19.0514 45.841 19.0514C54.0553 19.0514 60.7379 25.7342 60.7379 33.9483C60.7379 36.7134 59.9752 39.4125 58.532 41.7536C58.2473 42.2153 58.391 42.8203 58.8526 43.1048C59.3143 43.3895 59.9192 43.2458 60.2038 42.7842C61.8381 40.133 62.702 37.0777 62.702 33.9483C62.702 24.6512 55.1382 17.0875 45.8411 17.0875C42.5444 17.0875 39.3856 18.0265 36.6496 19.8118C36.6263 19.7861 36.6019 19.761 36.5784 19.7354C36.5119 19.6629 36.4448 19.591 36.3772 19.5193C36.3161 19.4544 36.2549 19.3896 36.193 19.3254C36.1243 19.2543 36.0548 19.184 35.985 19.1139C35.9224 19.0509 35.86 18.9879 35.7966 18.9257C35.7259 18.8564 35.6545 18.7879 35.5827 18.7194C35.5186 18.6582 35.4546 18.5969 35.3898 18.5365C35.3171 18.4689 35.2434 18.4021 35.1696 18.3355C35.1242 18.2943 35.0799 18.2522 35.0341 18.2116C38.2169 16.0154 41.928 14.861 45.8411 14.861C56.3661 14.861 64.9288 23.4236 64.9288 33.9486C64.929 44.4732 56.3663 53.0359 45.8413 53.0359Z" fill="#5E7E67"/>
</svg>
