<svg width="37" height="35" viewBox="0 0 37 35" fill="none" xmlns="http://www.w3.org/2000/svg">
<path fill-rule="evenodd" clip-rule="evenodd" d="M17.7851 34.7163C17.9757 34.9069 18.2246 35.0002 18.4735 35.0002C18.7204 35.0002 18.9693 34.9069 19.1599 34.7163L36.6606 17.2156C37.0398 16.8364 37.0398 16.22 36.6606 15.8408C36.2814 15.4616 35.665 15.4616 35.2858 15.8408L18.4735 32.6532L1.65917 15.8408C1.27998 15.4616 0.663569 15.4616 0.284387 15.8408C-0.0947956 16.22 -0.0947956 16.8364 0.284387 17.2156L17.7851 34.7163Z" fill="white"/>
<path fill-rule="evenodd" clip-rule="evenodd" d="M17.7851 19.1599C17.9757 19.3505 18.2246 19.4438 18.4735 19.4438C18.7204 19.4438 18.9693 19.3505 19.1599 19.1599L36.6606 1.65917C37.0398 1.27998 37.0398 0.663569 36.6606 0.284387C36.2814 -0.0947956 35.665 -0.0947956 35.2858 0.284387L18.4735 17.0968L1.65917 0.284387C1.27998 -0.0947956 0.663569 -0.0947956 0.284387 0.284387C-0.0947956 0.663569 -0.0947956 1.27998 0.284387 1.65917L17.7851 19.1599Z" fill="white"/>
</svg>
